HIERARCHY
ROOT Hips
{
  OFFSET 265.287 66.7526 -254.649
  CHANNELS 6 Xposition Yposition Zposition Zrotation Xrotation Yrotation
  JOINT LeftUpLeg
  {
    OFFSET 8.64259 1.95398 -2.38835
    CHANNELS 3 Zrotation Xrotation Yrotation
    JOINT LeftLeg
    {
      OFFSET 43.7702 0 0
      CHANNELS 3 Zrotation Xrotation Yrotation
      JOINT LeftFoot
      {
        OFFSET 40.6238 0 0
        CHANNELS 3 Zrotation Xrotation Yrotation
        JOINT LeftToeBase
        {
          OFFSET 12.7242 0 0
          CHANNELS 3 Zrotation Xrotation Yrotation
          End Site
          {
            OFFSET 0 0 0
          }
        }
      }
    }
  }
  JOINT RightUpLeg
  {
    OFFSET -8.2249 1.95398 -2.59336
    CHANNELS 3 Zrotation Xrotation Yrotation
    JOINT RightLeg
    {
      OFFSET 43.5653 0 0
      CHANNELS 3 Zrotation Xrotation Yrotation
      JOINT RightFoot
      {
        OFFSET 40.6238 0 0
        CHANNELS 3 Zrotation Xrotation Yrotation
        JOINT RightToeBase
        {
          OFFSET 12.7242 0 0
          CHANNELS 3 Zrotation Xrotation Yrotation
          End Site
          {
            OFFSET 0 0 0
          }
        }
      }
    }
  }
  JOINT Spine
  {
    OFFSET 0.165834 0.87714 6.61349
    CHANNELS 3 Zrotation Xrotation Yrotation
    JOINT Spine1
    {
      OFFSET 7.38963 1.71661e-005 0
      CHANNELS 3 Zrotation Xrotation Yrotation
      JOINT Spine2
      {
        OFFSET 11.9445 1.14441e-005 0
        CHANNELS 3 Zrotation Xrotation Yrotation
        JOINT Spine3
        {
          OFFSET 14.7254 4.19617e-005 0
          CHANNELS 3 Zrotation Xrotation Yrotation
          JOINT Spine4
          {
            OFFSET 10.9679 0 0
            CHANNELS 3 Zrotation Xrotation Yrotation
            JOINT RightShoulder
            {
              OFFSET 2.46616 -1.6653 3.69651
              CHANNELS 3 Zrotation Xrotation Yrotation
              JOINT RightArm
              {
                OFFSET 13.0012 0 0
                CHANNELS 3 Zrotation Xrotation Yrotation
                JOINT RightForeArm
                {
                  OFFSET 28.7848 1.52588e-005 0
                  CHANNELS 3 Zrotation Xrotation Yrotation
                  JOINT RightHand
                  {
                    OFFSET 26.5688 1.52588e-005 0
                    CHANNELS 3 Zrotation Xrotation Yrotation
                    End Site
                    {
                      OFFSET 0 0 0
                    }
                  }
                }
              }
            }
            JOINT LeftShoulder
            {
              OFFSET 2.38034 -1.29275 -3.7523
              CHANNELS 3 Zrotation Xrotation Yrotation
              JOINT LeftArm
              {
                OFFSET 16.3182 6.10351e-005 0
                CHANNELS 3 Zrotation Xrotation Yrotation
                JOINT LeftForeArm
                {
                  OFFSET 27.0901 0 0
                  CHANNELS 3 Zrotation Xrotation Yrotation
                  JOINT LeftHand
                  {
                    OFFSET 24.5451 1.52588e-005 0
                    CHANNELS 3 Zrotation Xrotation Yrotation
                    End Site
                    {
                      OFFSET 0 0 0
                    }
                  }
                }
              }
            }
            JOINT Neck
            {
              OFFSET 5.0226 -0.0266342 0
              CHANNELS 3 Zrotation Xrotation Yrotation
              JOINT Head
              {
                OFFSET 6.69364 2.86102e-005 0
                CHANNELS 3 Zrotation Xrotation Yrotation
                End Site
                {
                  OFFSET 0 0 0
                }
              }
            }
          }
        }
      }
    }
  }
}
MOTION
Frames:	7
Frame Time:	0.0416667
-27.6604 95.5625 33.0888 97.6542 24.8229 90.0538 -178.81 -2.28513 86.0293 -26.0092 27.2189 5.85959 68.3639 7.16683 15.348 33.4609 -0.972096 -6.77734 177.632 17.8479 85.7829 -26.0488 -5.61529 -1.98224 55.4808 3.69733 17.1301 32.4912 -0.223205 -3.84773 -0.492197 7.71657 -90.0707 11.441 -1.01227 -0.038158 -0.229597 -1.01301 0.00644304 -22.7676 -0.954008 -0.340647 -2.75501 -0.954004 -0.34065 101.703 -51.4113 -82.8755 32.0468 -0.531431 3.95399 -6.70176 -26.0673 -19.0973 -6.46773 -0.3857 1.91313 -81.007 -47.4981 91.9187 -23.466 16.8166 -28.0073 18.4902 19.9917 -36.4497 2.81046 0.0146903 -2.04554 -5.15587 6.12114 -6.19149 -19.5411 4.17191 17.9152 
-20.3759 95.4376 31.161 96.2037 30.5205 88.7659 -178.731 -6.30206 86.7083 -24.5807 32.0102 6.67362 68.5496 7.44003 14.3616 35.2515 -1.67674 -6.17248 177.955 16.6615 83.3952 -6.07132 -4.52438 -3.41638 51.7774 6.34724 22.8973 31.0466 0.0240516 -3.89641 -0.505774 7.57048 -89.9425 11.734 -0.978852 0.218031 0.0634123 -0.968312 0.260896 -22.4747 -0.999132 -0.0862674 -2.46203 -0.999119 -0.0862643 102.114 -51.6503 -82.245 32.7374 0.147533 5.15929 -6.41331 -26.5493 -18.4691 -6.29945 -0.427714 2.96125 -81.1315 -47.1281 91.7 -22.4942 18.5116 -29.0223 19.261 17.3039 -40.6043 2.50269 -0.0245343 -2.83185 -6.66031 4.56406 -6.45396 -18.6604 2.93796 16.1397 
-12.3031 94.4122 29.1743 96.2165 33.8195 88.4871 -179.485 -8.72254 87.9514 -30.3766 33.1696 9.50199 69.7622 7.21825 11.321 38.8048 -3.00366 -3.7917 177.945 17.8647 84.0243 -9.67509 -10.047 -2.80095 50.6981 6.51132 23.4446 38.0797 -1.22016 -2.94854 -0.473584 7.61258 -90.0999 11.6475 -0.988816 -0.0968384 -0.0230797 -0.992127 -0.0532214 -22.5608 -0.913995 -0.389565 -2.54814 -0.913995 -0.389564 102.092 -51.2122 -82.2789 32.205 0.190842 4.33434 -6.38902 -26.867 -18.1981 -6.45216 -0.413186 2.53349 -80.8556 -48.9252 92.2373 -23.2703 17.2166 -26.5628 19.3836 19.6569 -38.3617 3.96508 0.0234902 -2.29382 -6.57627 4.80912 -5.19279 -17.9202 3.21144 16.0108 
-3.40083 93.8584 26.3817 96.7123 37.1855 90.3161 178.504 -8.49782 92.4461 -39.4851 29.9807 11.3679 60.3744 1.71865 2.84277 47.9178 -6.29044 -5.17044 179.146 18.5181 87.5349 -22.6386 -15.3272 -2.80575 51.4589 6.03704 15.6627 34.5711 -0.772824 -1.00975 -0.533874 7.57764 -90.539 11.7156 -1.3148 -0.935515 0.0450647 -1.35471 -0.876741 -22.4909 -0.972879 -1.2874 -2.47824 -0.972868 -1.28741 101.985 -50.9003 -82.4456 31.0716 -0.132434 3.17697 -5.42978 -25.7333 -17.4412 -8.79529 -0.61932 3.11714 -80.9215 -49.6874 92.1796 -27.0891 13.0171 -21.3619 15.1662 26.0744 -25.3805 4.72845 0.148734 -0.539907 -6.54887 5.30823 -4.71912 -18.9709 3.38273 16.9927 
4.28145 93.229 23.2796 97.1451 42.475 90.3756 174.244 1.41977 92.9209 -57.3661 26.2942 9.0688 45.4611 -4.19293 -3.59245 50.8177 -7.2021 -4.23242 176.993 18.0814 88.4708 -34.3531 -12.8764 -1.36698 60.6886 3.42986 11.3039 35.6646 -1.01538 0.352637 -0.531796 7.55282 -90.7889 11.7576 -1.42818 -1.42194 0.0867132 -1.48936 -1.35773 -22.4454 -0.934869 -1.78535 -2.43272 -0.934872 -1.78535 102.223 -49.6981 -82.0762 31.006 -1.50883 2.57982 -4.59756 -22.4547 -18.5235 -11.4426 -0.787834 2.92316 -81.6178 -48.9519 91.0674 -31.3784 8.6044 -17.4262 8.51763 33.4896 -8.86248 1.4269 0.0752453 0.625081 -4.64001 4.39078 -4.54242 -19.2081 2.61065 16.0457 
11.0751 93.6385 19.6828 99.0073 45.1657 87.3446 175.061 12.4647 91.2546 -69.0235 16.9091 4.97767 48.7106 -2.38258 0.339837 47.1455 -5.99839 -5.61439 176.43 12.6547 88.2443 -37.316 -11.1947 -2.02063 65.7757 1.73867 9.82724 38.6905 -1.43691 0.183629 -0.102654 7.78686 -90.7734 11.2951 -0.564572 -1.48529 -0.376559 -0.629364 -1.45901 -22.9051 -0.0921301 -1.58627 -2.89242 -0.0921312 -1.58627 101.633 -49.4676 -83.0005 29.0176 -1.95427 0.0803134 -3.53992 -18.28 -18.8562 -12.9004 -0.802299 2.09236 -81.8579 -49.7147 90.7546 -31.3006 7.71926 -12.8602 7.51221 39.4657 -6.94936 -2.95845 -0.114765 0.760007 -2.73554 2.36156 -5.32545 -17.3838 1.15356 14.8036 
16.8812 94.6764 15.7982 98.5559 46.6919 84.594 179.487 19.7302 87.2892 -62.7683 14.0388 2.41789 56.5797 1.07411 4.22752 41.7569 -4.08243 -5.66341 175.191 7.10841 85.6039 -34.5935 -9.85846 -2.31308 67.599 1.56715 11.6654 39.6553 -1.58017 0.435184 0.247827 7.75078 -90.5393 11.3723 0.241702 -1.09685 -0.299081 0.193212 -1.10644 -22.8313 0.56015 -0.973517 -2.81864 0.560174 -0.973518 102.057 -48.5112 -82.3377 27.6863 -2.55262 -3.56038 -3.63455 -18.412 -19.0329 -12.1165 -0.764996 2.23487 -81.7266 -50.2452 90.9921 -31.0133 7.38973 -3.71356 10.6365 32.7772 -14.2346 -3.25879 -0.12147 -0.832019 -2.04587 1.21116 -4.71007 -17.3332 0.143556 13.3741 
